<svg width="795" height="798" viewBox="0 0 795 798" fill="none" xmlns="http://www.w3.org/2000/svg">
<path d="M547.663 220.67C686.39 397.703 588.179 634.071 648.953 716.752C495.802 766.198 374.579 764.09 278.637 716.752C182.695 669.413 77.6774 612.996 33.9201 453.31C11.1221 370.111 -17.9404 70.7108 17.7137 1C101.177 30.9919 374.254 -0.621181 547.663 220.67Z" fill="#2B876F" fill-opacity="0.1"/>
<path d="M794 797L721.071 759.713L648.953 716.752M648.953 716.752C588.179 634.071 686.39 397.703 547.663 220.67C374.254 -0.621181 101.177 30.9919 17.7137 1C-17.9404 70.7108 11.122 370.111 33.9201 453.31C77.6774 612.996 182.695 669.413 278.637 716.752C374.579 764.09 495.802 766.198 648.953 716.752ZM648.953 716.752C550.783 668.639 341.937 530.713 187.845 286.328C152.421 230.146 119.89 168.339 92.2631 100.703" stroke="white"/>
</svg>
