<svg width="491" height="493" viewBox="0 0 491 493" fill="none" xmlns="http://www.w3.org/2000/svg">
<path d="M153 136.5C67.4 245.7 128 391.5 90.5 442.5C185 473 259.8 471.7 319 442.5C378.2 413.3 443 378.5 470 280C484.067 228.68 502 44 480 1C428.5 19.5 260 0 153 136.5Z" fill="#2B876F" fill-opacity="0.1"/>
<path d="M1 492L46 469L90.5 442.5M90.5 442.5C128 391.5 67.4 245.7 153 136.5C260 0 428.5 19.5 480 1C502 44 484.067 228.68 470 280C443 378.5 378.2 413.3 319 442.5C259.8 471.7 185 473 90.5 442.5ZM90.5 442.5C151.075 412.823 279.941 327.745 375.022 177C396.88 142.345 416.953 104.22 434 62.5" stroke="white"/>
</svg>
